#!OML:ASF I:\Actors\actors\Patient Classification 2\Patient 1\Session 1\actor1.ASF
:FULLY-SPECIFIED
:DEGREES
374
root -1.73441 18.2126 5.48171 2.79272 36.3472 -7.80503
lowerback 10.3915 7.7271 -1.00929
upperback 1.37795 10.0485 -2.28089
thorax -4.07365 4.97992 -3.17196
lowerneck -4.2061 -18.9947 -15.7956
upperneck -0.736846 -25.7285 21.1907
head 5.32219 -12.4418 6.39729
rclavicle 1.31198e-014 -2.54444e-014
rhumerus -12.7801 -11.5544 -81.3567
rradius 36.9192
rwrist -18.4966
rhand -7.37074 -57.0589
rfingers 7.12502
rthumb 18.5142 -86.1979
lclavicle 1.31198e-014 -2.54444e-014
lhumerus -59.5097 -0.209191 82.409
lradius 59.9974
lwrist 13.1562
lhand -7.81093 -23.8661
lfingers 7.12502
lthumb 18.0908 5.31263
rfemur 4.92435 -32.6462 26.9294
rtibia 3.18055e-015
rfoot -19.3423 -6.42329
rtoes 17.4807
lfemur 0.777776 -25.1104 -2.92909
ltibia -24.0395
lfoot 11.1816 5.97086
ltoes -19.3279
375
root -1.67711 18.2123 5.49573 2.66423 35.313 -7.54072
lowerback 10.1772 7.64256 -0.967285
upperback 1.27548 9.94558 -2.27986
thorax -4.06049 4.9288 -3.15694
lowerneck -4.43878 -18.8719 -15.7721
upperneck -0.642385 -25.5449 21.1795
head 5.35241 -12.3328 6.40289
rclavicle 9.22361e-014 -1.74931e-014
rhumerus -14.3993 -9.08883 -81.3082
rradius 37.0948
rwrist -19.7582
rhand -8.98615 -57.101
rfingers 7.12502
rthumb 16.9598 -86.3806
lclavicle 9.22361e-014 -1.74931e-014
lhumerus -59.225 -0.130407 81.9671
lradius 59.6757
lwrist 12.4334
lhand -7.77472 -24.0045
lfingers 7.12502
lthumb 18.1256 5.17097
rfemur 5.50286 -31.6411 26.2778
rtibia 1.59028e-015
rfoot -19.4383 -6.53164
rtoes 17.1376
lfemur 1.7067 -24.7827 -3.64784
ltibia -24.0026
lfoot 10.761 6.26832
ltoes -19.7698
376
root -1.62417 18.2158 5.51146 2.69083 34.2502 -7.25889
lowerback 9.85372 7.55854 -1.02085
upperback 1.112 9.83432 -2.27566
thorax -4.06787 4.87433 -3.07757
lowerneck -4.66675 -18.7597 -15.8239
upperneck -0.501224 -25.3852 21.213
head 5.41688 -12.2328 6.42378
rclavicle 1.12711e-013 -2.46493e-014
rhumerus -15.8658 -11.4038 -81.8428
rradius 37.4028
rwrist -17.4162
rhand -10.2924 -57.098
rfingers 7.12502
rthumb 15.7021 -86.4809
lclavicle 1.12711e-013 -2.46493e-014
lhumerus -58.9872 -0.0616462 81.5145
lradius 59.4403
lwrist 11.8409
lhand -8.11572 -24.2355
lfingers 7.12502
lthumb 17.7975 4.97012
rfemur 5.86536 -30.5932 25.7484
rtibia -4.77083e-015
rfoot -19.5102 -6.74969
rtoes 16.2369
lfemur 2.47131 -24.2291 -4.32357
ltibia -23.9633
lfoot 10.4306 6.41612
ltoes -20.2209
377
root -1.57754 18.2193 5.53807 2.80558 32.9888 -6.94899
lowerback 9.41109 7.54351 -1.33464
upperback 0.890131 9.79065 -2.23582
thorax -4.11709 4.85653 -2.82254
lowerneck -4.83318 -18.6213 -15.9085
upperneck -0.369418 -25.1956 21.2684
head 5.47099 -12.1221 6.46711
rclavicle 7.39479e-014 6.36111e-015
rhumerus -17.9187 -6.74955 -81.8579
rradius 38.3393
rwrist -22.7723
rhand -13.4403 -57.4583
rfingers 7.12502
rthumb 12.6687 -87.0541
lclavicle 7.39479e-014 6.36111e-015
lhumerus -58.9037 -0.0413611 81.2673
lradius 59.3326
lwrist 12.2421
lhand -8.41401 -24.2625
lfingers 7.12502
lthumb 17.5104 4.96885
rfemur 6.15361 -29.3431 25.253
rtibia -2.22639e-014
rfoot -19.618 -6.87911
rtoes 15.6455
lfemur 3.23246 -23.6648 -4.95586
ltibia -23.9156
lfoot 9.96339 6.79668
ltoes -20.1424
378
root -1.53091 18.2197 5.56451 2.78444 31.7001 -6.72259
lowerback 9.04323 7.48769 -1.60092
upperback 0.699344 9.70009 -2.14892
thorax -4.17551 4.8156 -2.54755
lowerneck -5.06047 -18.4537 -16.0216
upperneck -0.227465 -24.9615 21.3622
head 5.5398 -11.9848 6.52821
rclavicle 9.40251e-014 -2.78299e-014
rhumerus -19.6221 -5.24353 -81.9835
rradius 38.8135
rwrist -23.5851
rhand -12.713 -57.6036
rfingers 7.12502
rthumb 13.3699 -87.1546
lclavicle 9.40251e-014 -2.78299e-014
lhumerus -58.8516 0.146632 80.8911
lradius 59.1556
lwrist 12.1375
lhand -8.31473 -24.4478
lfingers 7.12502
lthumb 17.606 4.77501
rfemur 6.52163 -28.0689 24.7876
rtibia 0
rfoot -19.7455 -6.92494
rtoes 15.5078
lfemur 4.05618 -23.0936 -5.53189
ltibia -23.8358
lfoot 9.43568 7.25596
ltoes -19.8309
379
root -1.48469 18.2195 5.58205 2.69285 30.5026 -6.50272
lowerback 8.80252 7.36015 -1.75622
upperback 0.555373 9.52296 -2.08023
thorax -4.23414 4.73048 -2.35322
lowerneck -5.3611 -18.2595 -16.0787
upperneck -0.105575 -24.6824 21.4729
head 5.60191 -11.8212 6.59165
rclavicle 1.07344e-014 3.18055e-015
rhumerus -20.7858 -4.95218 -82.0999
rradius 38.7532
rwrist -23.0863
rhand -9.46678 -57.5297
rfingers 7.12502
rthumb 16.4971 -86.8484
lclavicle 1.07344e-014 3.18055e-015
lhumerus -58.79 0.270657 80.5302
lradius 59.0249
lwrist 11.959
lhand -7.69228 -24.4945
lfingers 7.12502
lthumb 18.2049 4.67363
rfemur 6.90815 -26.8881 24.3142
rtibia 3.18055e-015
rfoot -19.8311 -7.01321
rtoes 15.387
lfemur 4.84815 -22.3853 -6.13527
ltibia -23.7424
lfoot 9.04866 7.51085
ltoes -19.5973
380
root -1.43654 18.2189 5.60379 2.60399 29.3047 -6.12299
lowerback 8.55431 7.26412 -1.94757
upperback 0.474185 9.38419 -2.07166
thorax -4.2163 4.666 -2.19901
lowerneck -5.69917 -18.0644 -15.9723
upperneck -0.0244736 -24.3908 21.4972
head 5.62166 -11.6529 6.61231
rclavicle 5.94366e-014 -1.03368e-014
rhumerus -21.7184 -5.27359 -81.9163
rradius 38.4446
rwrist -21.3318
rhand -9.99017 -57.6333
rfingers 7.12502
rthumb 15.9931 -86.9931
lclavicle 5.94366e-014 -1.03368e-014
lhumerus -58.7028 0.135353 80.3916
lradius 59.0045
lwrist 12.6132
lhand -6.69372 -24.0403
lfingers 7.12502
lthumb 19.1654 5.03538
rfemur 7.39493 -25.7062 23.6389
rtibia 4.77083e-015
rfoot -19.9187 -7.1291
rtoes 15.1467
lfemur 5.74818 -21.7967 -6.92811
ltibia -23.6658
lfoot 8.65162 7.86237
ltoes -19.2667
381
root -1.38576 18.2148 5.63136 2.46722 28.1007 -5.77585
lowerback 8.20387 7.16563 -2.10758
upperback 0.446932 9.25287 -2.02041
thorax -4.08638 4.60624 -2.0001
lowerneck -6.09739 -17.8535 -15.8776
upperneck 0.0695342 -24.0684 21.4987
head 5.64779 -11.466 6.62851
rclavicle 8.94531e-015 5.56597e-015
rhumerus -22.8048 -5.60184 -81.5868
rradius 38.4318
rwrist -20.1176
rhand -5.51062 -57.91
rfingers 7.12502
rthumb 20.3027 -86.8688
lclavicle 8.94531e-015 5.56597e-015
lhumerus -58.5009 0.138053 80.1741
lradius 58.8418
lwrist 12.9527
lhand -6.6085 -23.1458
lfingers 7.12502
lthumb 19.2473 5.92171
rfemur 7.9126 -24.5101 22.9838
rtibia -2.54444e-014
rfoot -20.0359 -7.27309
rtoes 14.6856
lfemur 6.6947 -21.3181 -7.69781
ltibia -23.5774
lfoot 8.17938 8.3337
ltoes -18.7678
382
root -1.34561 18.2095 5.65704 2.3091 26.7746 -5.62036
lowerback 7.82452 7.06874 -2.26512
upperback 0.396007 9.12801 -1.89323
thorax -3.97597 4.54954 -1.7256
lowerneck -6.5167 -17.616 -15.9298
upperneck 0.209887 -23.711 21.5641
head 5.7129 -11.2578 6.68573
rclavicle -1.15096e-013 2.70347e-014
rhumerus -23.9682 -5.37537 -81.3929
rradius 38.659
rwrist -20.8503
rhand -8.76518 -58.2224
rfingers 7.12502
rthumb 17.1725 -87.4835
lclavicle -1.15096e-013 2.70347e-014
lhumerus -58.1907 0.328614 79.7804
lradius 58.4308
lwrist 12.6617
lhand -7.75191 -22.9396
lfingers 7.12502
lthumb 18.1475 6.23377
rfemur 8.27888 -23.194 22.6175
rtibia 1.59028e-014
rfoot -20.1358 -7.44846
rtoes 14.2364
lfemur 7.53794 -20.6437 -8.21542
ltibia -23.4767
lfoot 7.74549 8.74306
ltoes -18.05
383
root -1.31378 18.2056 5.6804 2.22418 25.4326 -5.37286
lowerback 7.51122 6.97858 -2.57542
upperback 0.289663 8.99482 -1.78826
thorax -3.97829 4.49026 -1.40714
lowerneck -6.90837 -17.3727 -15.8777
upperneck 0.3982 -23.3534 21.5261
head 5.75982 -11.053 6.70214
rclavicle 4.59193e-014 -1.19271e-014
rhumerus -25.0694 -5.50822 -81.1308
rradius 38.7916
rwrist -20.9333
rhand -10.2335 -58.2595
rfingers 7.12502
rthumb 15.7588 -87.638
lclavicle 4.59193e-014 -1.19271e-014
lhumerus -57.9187 0.498348 79.3617
lradius 58.0337
lwrist 12.6424
lhand -9.12939 -23.659
lfingers 7.12502
lthumb 16.8219 5.63235
rfemur 8.56917 -21.865 22.2116
rtibia -1.74931e-014
rfoot -20.2295 -7.57976
rtoes 14.1496
lfemur 8.31216 -19.9292 -8.77658
ltibia -23.3841
lfoot 7.3343 9.1252
ltoes -17.5584
